<svg id="Layer_1" data-name="Layer 1" xmlns="http://www.w3.org/2000/svg" viewBox="0 0 330.44 330.44"><defs><style>.cls-1{fill:#00aeef;}.cls-2{fill:#93c8e7;}.cls-3{fill:#231f20;}</style></defs><title>Logo</title><path class="cls-1" d="M422.7,506.57l-.6-.6c-.22.3-.42.61-.6.91Z" transform="translate(-368.78 -315.46)"/><path class="cls-2" d="M647.21,442.09c-3.58-2.73-8.85-4.31-15.61-4.65-1.21-.06-2.46-.08-3.73-.08l26.22,26.22a39,39,0,0,0,.12-8.75A17.69,17.69,0,0,0,647.21,442.09Z" transform="translate(-368.78 -315.46)"/><path class="cls-2" d="M593.79,578.19A104.33,104.33,0,0,1,563.92,588L534,617.87,506.08,590a7.77,7.77,0,0,1-3.4.79,9,9,0,0,1-6.11-2.63,25.61,25.61,0,0,1-5.25-7,39,39,0,0,1-3.27-8.51c-.08-.3-.14-.6-.2-.89l-38.37-38.36A122.93,122.93,0,0,1,437,537a54,54,0,0,1-10.39,1.53L534,645.9,612,568A178.94,178.94,0,0,1,593.79,578.19Z" transform="translate(-368.78 -315.46)"/><path class="cls-2" d="M401.34,498.2a26.69,26.69,0,0,1,7.75-5.24l-12.28-12.28,10.44-10.44c-1-.73-2-1.48-2.88-2.25a41.77,41.77,0,0,1-10.22-12.09l-.2-.39-25.17,25.17,26.41,26.41A26.8,26.8,0,0,1,401.34,498.2Z" transform="translate(-368.78 -315.46)"/><path class="cls-2" d="M684.34,465.8a48.23,48.23,0,0,1-.18,5.86,83.54,83.54,0,0,1-9.5,30.63c-1.18,2.26-2.46,4.51-3.81,6.76l28.37-28.37Z" transform="translate(-368.78 -315.46)"/><path class="cls-2" d="M507.61,343a22.46,22.46,0,0,1,14.76,2.47,45.23,45.23,0,0,1,5.85,3.77l5.78-5.78,69.63,69.62c.74-.07,1.48-.17,2.23-.24a96.64,96.64,0,0,1,24.51.55l1.94.35L534,315.46l-27.88,27.88Z" transform="translate(-368.78 -315.46)"/><path class="cls-3" d="M672.2,445a72.92,72.92,0,0,0-10.6-12.4,53.49,53.49,0,0,0-13.9-9.3,70,70,0,0,0-18.2-5.4,90.66,90.66,0,0,0-23.1-.5,230.88,230.88,0,0,0-54.5,11.5q-24.9,8.7-42.7,20.4t-27.5,24.9a55.28,55.28,0,0,0-5.47,9.06l-.24-.36a22.32,22.32,0,0,0-6.4-5.5q-4.6-2.9-10.1-5.8t-11-5.4q-5.5-2.49-8.9-4.3-3.81-2-8-4a51.86,51.86,0,0,1-7.5-4.3,17.71,17.71,0,0,1-5-5,6.3,6.3,0,0,1-.3-6.1q1-2,7.5-10.3t19.1-19.7a198,198,0,0,1,17.2-14.1q9.39-6.9,18.7-12.7a199.81,199.81,0,0,1,17.9-10,78.84,78.84,0,0,1,15-5.8q6.79-1.59,8.5.5c1.13,1.4,1.36,3.34.7,5.8a30.24,30.24,0,0,1-3.8,8.1q-2.8,4.41-4.8,7.4a88.48,88.48,0,0,1-9.9,13.4q-5.7,6.4-11.9,12.5l-12.3,12.1q-6.1,6-11.3,12.2a10.2,10.2,0,0,0-1.9,5,10.87,10.87,0,0,0,.7,5.3,11.24,11.24,0,0,0,3,4.3,6.92,6.92,0,0,0,4.8,1.8q8.6-9.79,19.1-20.4t19.8-21.6a167.81,167.81,0,0,0,15.9-22q6.6-11,7.2-21.6c.26-1.6-.4-3.93-2-7a40.1,40.1,0,0,0-6.6-9,38.35,38.35,0,0,0-9.6-7.3,17,17,0,0,0-11.2-1.9q-6.81,1.2-17.5,7a265.62,265.62,0,0,0-23,14.2q-12.3,8.4-24.8,18.4t-22.7,19.8a183.71,183.71,0,0,0-16.9,18.3q-6.7,8.5-7.1,13.9a21.71,21.71,0,0,0,2.4,13.2,36.34,36.34,0,0,0,8.9,10.5,73.52,73.52,0,0,0,13,8.5q7.29,3.81,15,7.1t14.7,6.5a95.32,95.32,0,0,1,12.2,6.6c1.2.8,1,1.94-.7,3.4a34.81,34.81,0,0,1-7.3,4.6q-4.8,2.4-11,4.8t-11.9,4.3q-5.7,1.9-10,2.9t-5.1.6a3.18,3.18,0,0,1-2-3,10,10,0,0,1,1.1-4.3,22.41,22.41,0,0,1,2.9-4.5q1.8-2.19,3.4-3.8a12.37,12.37,0,0,0-9-.2,21.41,21.41,0,0,0-8,4.9,21,21,0,0,0-5,7.3q-1.6,4,.2,7a21.3,21.3,0,0,1,3.3,3.1,69.31,69.31,0,0,0,5,4.9,76,76,0,0,0,6.2,5,18.61,18.61,0,0,0,6.7,3.2q4.8,1.2,14.2-1a124.82,124.82,0,0,0,19.3-6.3A104.74,104.74,0,0,0,473,515c.66-.44,1.3-.88,1.9-1.32a17.57,17.57,0,0,0,3.21,5.92,22.43,22.43,0,0,0,7.3,5.5,88.14,88.14,0,0,0,12,4.7,52,52,0,0,0,17.6,2.6q-6,8.4-11.5,16.3t-10.3,15.7c-.53,1.34-.47,3.3.2,5.9a33.35,33.35,0,0,0,2.8,7.3,20.08,20.08,0,0,0,4.1,5.5q2.29,2.1,4.1.5,3.8-6.4,7.9-12.5t8.3-12.5q5,14.4,16,19.7t25,3.5q14-1.8,29.8-9.5a180.91,180.91,0,0,0,30.7-19.1,195.59,195.59,0,0,0,27.5-25.6,143.24,143.24,0,0,0,20.2-28.8,77.4,77.4,0,0,0,8.9-28.6A36.78,36.78,0,0,0,672.2,445Zm-152.6,75.2c-2.13.27-4.67.47-7.6.6a64.77,64.77,0,0,1-8.9-.2,46.08,46.08,0,0,1-8.7-1.6,20.08,20.08,0,0,1-7.1-3.5,11.15,11.15,0,0,1-3.9-5.8q-1-3.5.8-8.7,2.6-7.39,12.4-16.2a162.9,162.9,0,0,1,23.9-17.4,281.09,281.09,0,0,1,31-16.2,277.58,277.58,0,0,1,33.5-12.6q-13.2,20.21-29.2,40.4t-31,40.6Zm137.1-44.5a107.85,107.85,0,0,1-12.7,25,169.71,169.71,0,0,1-19.8,24.4,164,164,0,0,1-24.2,20.5,106,106,0,0,1-26.3,13.5,60.35,60.35,0,0,1-25.8,3.2q-12.49-1.29-22.7-10.5,4-5.4,8.1-11.1t8.1-11.5a151,151,0,0,0,21.4-6.6,192.68,192.68,0,0,0,20.6-9.4,161.35,161.35,0,0,0,18.1-11.1A92.81,92.81,0,0,0,615.6,490a42.26,42.26,0,0,0,8.4-12.4,17.94,17.94,0,0,0,1.2-11.6,206.67,206.67,0,0,1-32.5,26,198.68,198.68,0,0,1-38.1,19.4q13.8-18.6,26.9-36.7t24.1-35.3a4.83,4.83,0,0,0,.4-2.8,14,14,0,0,0-.8-3.2,108.1,108.1,0,0,1,26.7-2.4q11.9.6,18.7,5.8a23.16,23.16,0,0,1,9.1,16.5Q660.79,463.64,656.7,475.73Z" transform="translate(-368.78 -315.46)"/></svg>